<svg width="20" height="20" viewBox="0 0 20 20" fill="none" xmlns="http://www.w3.org/2000/svg">
<path d="M18.4701 -3.5936e-07H1.53006C1.33964 -0.00264498 1.15056 0.0322471 0.973624 0.102683C0.796689 0.17312 0.635362 0.27772 0.498856 0.410512C0.36235 0.543303 0.25334 0.701684 0.178051 0.876609C0.102761 1.05153 0.062667 1.23958 0.0600586 1.43V18.57C0.062667 18.7604 0.102761 18.9485 0.178051 19.1234C0.25334 19.2983 0.36235 19.4567 0.498856 19.5895C0.635362 19.7223 0.796689 19.8269 0.973624 19.8973C1.15056 19.9678 1.33964 20.0026 1.53006 20H18.4701C18.6605 20.0026 18.8496 19.9678 19.0265 19.8973C19.2034 19.8269 19.3648 19.7223 19.5013 19.5895C19.6378 19.4567 19.7468 19.2983 19.8221 19.1234C19.8974 18.9485 19.9375 18.7604 19.9401 18.57V1.43C19.9375 1.23958 19.8974 1.05153 19.8221 0.876609C19.7468 0.701684 19.6378 0.543303 19.5013 0.410512C19.3648 0.27772 19.2034 0.17312 19.0265 0.102683C18.8496 0.0322471 18.6605 -0.00264498 18.4701 -3.5936e-07ZM6.09006 16.74H3.09006V7.74H6.09006V16.74ZM4.59006 6.48C4.17632 6.48 3.77953 6.31564 3.48697 6.02309C3.19442 5.73053 3.03006 5.33374 3.03006 4.92C3.03006 4.50626 3.19442 4.10947 3.48697 3.81691C3.77953 3.52436 4.17632 3.36 4.59006 3.36C4.80975 3.33508 5.03223 3.35685 5.24293 3.42388C5.45363 3.49091 5.6478 3.60169 5.81272 3.74896C5.97763 3.89623 6.10958 4.07668 6.19993 4.27848C6.29027 4.48028 6.33698 4.6989 6.33698 4.92C6.33698 5.1411 6.29027 5.35971 6.19993 5.56152C6.10958 5.76332 5.97763 5.94377 5.81272 6.09104C5.6478 6.23831 5.45363 6.34909 5.24293 6.41612C5.03223 6.48315 4.80975 6.50491 4.59006 6.48ZM16.9101 16.74H13.9101V11.91C13.9101 10.7 13.4801 9.91 12.3901 9.91C12.0527 9.91247 11.7242 10.0183 11.4489 10.2132C11.1735 10.4081 10.9645 10.6827 10.8501 11C10.7718 11.235 10.7379 11.4826 10.7501 11.73V16.73H7.75006C7.75006 16.73 7.75006 8.55 7.75006 7.73H10.7501V9C11.0226 8.52711 11.419 8.13752 11.8965 7.8732C12.374 7.60888 12.9146 7.47985 13.4601 7.5C15.4601 7.5 16.9101 8.79 16.9101 11.56V16.74Z" fill="black"/>
</svg>
